<?xml version="1.0" encoding="UTF-8"?>
<svg xmlns="http://www.w3.org/2000/svg" xmlns:xlink="http://www.w3.org/1999/xlink" width="30px" height="30px" viewBox="0 0 30 30" version="1.1">
<g id="surface1">
<path style=" stroke:none;fill-rule:nonzero;fill:rgb(22.352941%,59.215686%,82.745098%);fill-opacity:1;" d="M 29.648438 15 C 29.648438 23.089844 23.089844 29.648438 15 29.648438 C 6.910156 29.648438 0.351562 23.089844 0.351562 15 C 0.351562 6.910156 6.910156 0.351562 15 0.351562 C 23.089844 0.351562 29.648438 6.910156 29.648438 15 Z M 29.648438 15 "/>
<path style=" stroke:none;fill-rule:nonzero;fill:rgb(16.078431%,50.588235%,72.941176%);fill-opacity:1;" d="M 29.648438 15.132812 C 29.636719 15.117188 29.625 15.105469 29.609375 15.085938 C 27.269531 12.757812 24.9375 10.421875 22.605469 8.085938 C 22.46875 7.949219 22.324219 7.890625 22.132812 7.890625 C 21.023438 7.898438 19.914062 7.890625 18.8125 7.898438 C 18.726562 7.898438 18.667969 7.875 18.601562 7.808594 C 18.179688 7.382812 17.753906 6.960938 17.332031 6.53125 C 17.132812 6.328125 16.898438 6.234375 16.617188 6.234375 C 16.089844 6.238281 15.554688 6.234375 15.027344 6.234375 C 14.5 6.234375 13.980469 6.234375 13.453125 6.234375 C 13.234375 6.234375 13.035156 6.292969 12.867188 6.433594 C 12.679688 6.597656 12.578125 6.804688 12.578125 7.046875 C 12.578125 7.316406 12.578125 7.59375 12.578125 7.886719 C 12.503906 7.886719 12.449219 7.886719 12.398438 7.886719 C 10.925781 7.886719 9.457031 7.886719 7.980469 7.886719 C 7.933594 7.886719 7.886719 7.886719 7.839844 7.886719 C 7.640625 7.90625 7.488281 8.03125 7.445312 8.214844 C 7.410156 8.371094 7.464844 8.507812 7.574219 8.625 C 7.878906 8.929688 8.179688 9.242188 8.496094 9.539062 C 8.613281 9.648438 8.664062 9.765625 8.664062 9.929688 C 8.699219 10.933594 8.742188 11.9375 8.777344 12.9375 C 8.800781 13.582031 8.824219 14.230469 8.847656 14.875 C 8.882812 15.773438 8.917969 16.664062 8.953125 17.558594 C 8.976562 18.128906 8.992188 18.703125 9.015625 19.277344 C 9.050781 20.214844 9.085938 21.152344 9.128906 22.082031 C 9.132812 22.246094 9.140625 22.410156 9.167969 22.574219 C 9.226562 22.933594 9.421875 23.214844 9.671875 23.464844 C 10.925781 24.714844 12.179688 25.96875 13.433594 27.222656 C 14.21875 28.007812 15.003906 28.792969 15.789062 29.578125 C 15.808594 29.59375 15.824219 29.613281 15.84375 29.625 C 23.496094 29.1875 29.578125 22.882812 29.648438 15.132812 Z M 29.648438 15.132812 "/>
<path style=" stroke:none;fill-rule:nonzero;fill:rgb(100%,100%,100%);fill-opacity:1;" d="M 22.1875 7.871094 L 17.46875 7.871094 L 17.46875 7.03125 C 17.46875 6.578125 17.097656 6.210938 16.648438 6.210938 L 13.359375 6.210938 C 12.910156 6.210938 12.539062 6.578125 12.539062 7.03125 L 12.539062 7.863281 L 7.816406 7.863281 C 7.589844 7.863281 7.402344 8.050781 7.402344 8.277344 C 7.402344 8.507812 7.589844 8.695312 7.816406 8.695312 L 8.585938 8.695312 L 9.105469 22.304688 C 9.136719 23.140625 9.816406 23.792969 10.648438 23.792969 L 19.359375 23.792969 C 20.191406 23.792969 20.871094 23.144531 20.902344 22.304688 L 21.421875 8.695312 L 22.191406 8.695312 C 22.417969 8.695312 22.605469 8.507812 22.605469 8.277344 C 22.605469 8.050781 22.417969 7.871094 22.1875 7.871094 Z M 13.359375 7.039062 L 16.640625 7.039062 L 16.640625 7.863281 L 13.359375 7.863281 Z M 20.074219 22.273438 C 20.054688 22.660156 19.746094 22.964844 19.359375 22.964844 L 10.640625 22.964844 C 10.253906 22.964844 9.9375 22.660156 9.925781 22.273438 L 9.40625 8.695312 L 20.59375 8.695312 Z M 20.074219 22.273438 "/>
<path style=" stroke:none;fill-rule:nonzero;fill:rgb(100%,100%,100%);fill-opacity:1;" d="M 12.070312 12.039062 C 12.070312 12.039062 12.0625 12.039062 12.0625 12.039062 C 11.835938 12.046875 11.65625 12.234375 11.660156 12.460938 L 11.789062 19.210938 C 11.792969 19.441406 11.976562 19.617188 12.203125 19.617188 C 12.203125 19.617188 12.210938 19.617188 12.210938 19.617188 C 12.4375 19.609375 12.621094 19.421875 12.613281 19.195312 L 12.480469 12.445312 C 12.476562 12.21875 12.292969 12.039062 12.070312 12.039062 Z M 12.070312 12.039062 "/>
<path style=" stroke:none;fill-rule:nonzero;fill:rgb(100%,100%,100%);fill-opacity:1;" d="M 15 12.039062 C 14.773438 12.039062 14.585938 12.226562 14.585938 12.457031 L 14.585938 19.207031 C 14.585938 19.4375 14.773438 19.625 15 19.625 C 15.226562 19.625 15.417969 19.4375 15.417969 19.207031 L 15.417969 12.453125 C 15.417969 12.222656 15.226562 12.039062 15 12.039062 Z M 15 12.039062 "/>
<path style=" stroke:none;fill-rule:nonzero;fill:rgb(100%,100%,100%);fill-opacity:1;" d="M 17.796875 19.617188 C 17.796875 19.617188 17.800781 19.617188 17.800781 19.617188 C 18.023438 19.617188 18.210938 19.4375 18.21875 19.214844 L 18.34375 12.464844 C 18.351562 12.234375 18.171875 12.046875 17.941406 12.042969 C 17.714844 12.035156 17.523438 12.21875 17.519531 12.445312 L 17.390625 19.195312 C 17.382812 19.421875 17.566406 19.609375 17.796875 19.617188 Z M 17.796875 19.617188 "/>
</g>
</svg>
